<?xml version="1.0" encoding="UTF-8" standalone="no"?>
<!-- Created with Inkscape (http://www.inkscape.org/) -->

<svg
   xmlns:dc="http://purl.org/dc/elements/1.1/"
   xmlns:cc="http://creativecommons.org/ns#"
   xmlns:rdf="http://www.w3.org/1999/02/22-rdf-syntax-ns#"
   xmlns:svg="http://www.w3.org/2000/svg"
   xmlns="http://www.w3.org/2000/svg"
   xmlns:sodipodi="http://sodipodi.sourceforge.net/DTD/sodipodi-0.dtd"
   xmlns:inkscape="http://www.inkscape.org/namespaces/inkscape"
   width="31.71874"
   height="35.626011"
   id="svg2"
   version="1.1"
   inkscape:version="0.48.4 r9939"
   sodipodi:docname="nicht.svg">
  <defs
     id="defs4" />
  <sodipodi:namedview
     id="base"
     pagecolor="#ffffff"
     bordercolor="#666666"
     borderopacity="1.0"
     inkscape:pageopacity="0.0"
     inkscape:pageshadow="2"
     inkscape:zoom="7.9195959"
     inkscape:cx="16.696367"
     inkscape:cy="28.973524"
     inkscape:document-units="px"
     inkscape:current-layer="layer1"
     showgrid="false"
     fit-margin-top="0"
     fit-margin-left="0"
     fit-margin-right="0"
     fit-margin-bottom="0"
     inkscape:window-width="1904"
     inkscape:window-height="918"
     inkscape:window-x="0"
     inkscape:window-y="25"
     inkscape:window-maximized="1" />
  <metadata
     id="metadata7">
    <rdf:RDF>
      <cc:Work
         rdf:about="">
        <dc:format>image/svg+xml</dc:format>
        <dc:type
           rdf:resource="http://purl.org/dc/dcmitype/StillImage" />
        <dc:title></dc:title>
      </cc:Work>
    </rdf:RDF>
  </metadata>
  <g
     inkscape:label="Layer 1"
     inkscape:groupmode="layer"
     id="layer1"
     transform="translate(-480,-280)">
    <flowRoot
       xml:space="preserve"
       id="flowRoot2993"
       style="font-size:40px;font-style:normal;font-weight:normal;line-height:125%;letter-spacing:0px;word-spacing:0px;fill:#000000;fill-opacity:1;stroke:none;font-family:Sans"><flowRegion
         id="flowRegion2995"><rect
           id="rect2997"
           width="140"
           height="88.571426"
           x="94.285713"
           y="72.362183" /></flowRegion><flowPara
         id="flowPara2999"></flowPara></flowRoot>    <g
       transform="matrix(0.18757374,0,0,0.18757374,463.80714,194.83607)"
       id="g1348">
      <path
         style="font-size:256px;font-style:normal;font-variant:normal;font-weight:normal;font-stretch:normal;text-align:start;line-height:100%;writing-mode:lr-tb;text-anchor:start;fill:#000000;fill-opacity:1;stroke:none;font-family:Palatino Linotype"
         d="m 100.16623,51.415329 c 6.58323,-6.333244 12.91656,-11.708238 19,-16.125 6.08322,-4.499896 11.20821,-7.499893 15.375,-9 4.16654,-1.49989 8.7082,-2.249889 13.625,-2.25 10.33318,1.11e-4 18.66651,3.45844 25,10.375 6.4165,6.833427 9.62483,15.125085 9.625,24.875 -1.7e-4,6.666735 -1.41684,12.833396 -4.25,18.5 -2.8335,5.666718 -6.87516,9.95838 -12.125,12.875 -5.16682,2.916708 -11.12515,4.37504 -17.875,4.375 -8.75013,4e-5 -16.41679,-1.874959 -23,-5.625 -6.50011,-3.749951 -14.95844,-10.833277 -25.375,-21.25 -10.833415,10.750056 -19.458406,17.916715 -25.875001,21.5 -6.416725,3.583375 -13.875051,5.37504 -22.375,5.375 -10.833365,4e-5 -19.29169,-3.374957 -25.375,-10.125 -6.000011,-6.749944 -9.000008,-15.291602 -9,-25.625 -8e-6,-9.666582 3.166655,-17.95824 9.5,-24.875 6.416642,-6.91656 14.791634,-10.374889 25.125,-10.375 4.999952,1.11e-4 9.583281,0.75011 13.75,2.25 4.166606,1.500107 9.249934,4.500104 15.25,9 6.083255,4.416762 12.416582,9.791756 19.000001,16.125 m 8.125,7.75 c 8.83322,8.750067 16.08322,14.708394 21.75,17.875 5.74987,3.083388 11.4582,4.625053 17.125,4.625 7.08319,5.3e-5 12.62485,-2.083278 16.625,-6.25 3.99984,-4.249937 5.99984,-9.374931 6,-15.375 -1.6e-4,-6.583252 -2.00016,-11.999913 -6,-16.25 -3.91682,-4.333238 -9.12515,-6.499903 -15.625,-6.5 -3.6668,9.7e-5 -7.20847,0.666763 -10.625,2 -3.41679,1.250094 -7.50012,3.500092 -12.25,6.75 -4.75011,3.166752 -10.41677,7.541748 -17,13.125 m -16.250001,0 c -6.000077,-5.083253 -11.375072,-9.249915 -16.125,-12.5 -4.750062,-3.333242 -8.916725,-5.70824 -12.5,-7.125 -3.583384,-1.41657 -7.500047,-2.124903 -11.75,-2.125 -6.08337,9.7e-5 -11.125031,2.125095 -15.125,6.375 -4.000023,4.250087 -6.000021,9.666748 -6,16.25 -2.1e-5,4.583403 1.041644,8.458399 3.125,11.625 2.083307,3.166726 4.624971,5.625057 7.625,7.375 3.083298,1.750054 6.916628,2.625053 11.5,2.625 5.99995,5.3e-5 11.833278,-1.583279 17.5,-4.75 5.6666,-3.166606 12.916593,-9.083267 21.75,-17.75"
         id="text1326"
         inkscape:connector-curvature="0" />
    </g>
  </g>
</svg>
