<?xml version="1.0" encoding="utf-8"?>
<!-- Generator: Adobe Illustrator 15.0.0, SVG Export Plug-In . SVG Version: 6.00 Build 0)  -->
<!DOCTYPE svg PUBLIC "-//W3C//DTD SVG 1.1//EN" "http://www.w3.org/Graphics/SVG/1.1/DTD/svg11.dtd">
<svg version="1.1" id="Ebene_1" xmlns="http://www.w3.org/2000/svg" xmlns:xlink="http://www.w3.org/1999/xlink" x="0px" y="0px"
	 width="51.024px" height="51.024px" viewBox="0 0 51.024 51.024" enable-background="new 0 0 51.024 51.024" xml:space="preserve">


<g id="path6">
	<path fill-rule="evenodd" clip-rule="evenodd" fill="#FFFFFF" d="M7.467,22.221c-0.778,0.833-1.825,2.503-1.896,3.275
		c-0.306,3.307,2.918,6.333,5.688,6.724c6.24,0.878,10.749-3.472,13.964-5.689c1.189,1.911,3.067,4.078,5.861,4.999
		c7.73,2.55,18.035-3.832,13.102-11.55c-6.253-3.286-13.762,1.245-18.445,3.792C23.632,17.118,11.957,17.421,7.467,22.221z"/>
	<path fill-rule="evenodd" clip-rule="evenodd" d="M25.741,23.772c4.684-2.547,12.192-7.078,18.445-3.792
		c4.934,7.718-5.371,14.1-13.102,11.55c-2.794-0.921-4.672-3.088-5.861-4.999c-3.215,2.218-7.724,6.567-13.964,5.689
		c-2.771-0.391-5.994-3.417-5.688-6.724c0.071-0.772,1.118-2.443,1.896-3.275C11.957,17.421,23.632,17.118,25.741,23.772z
		 M7.812,28.772c2.443,4.558,10.479,1.208,13.101-0.518c1.177-0.773,3.798-3.173,3.793-4.137c-0.003-0.57-1.267-1.602-1.896-2.068
		c-1.728-1.283-4.112-2.507-6.551-2.241C11.253,20.353,4.893,23.324,7.812,28.772z M32.809,30.15
		c3.542,0.429,7.949-0.423,9.825-2.239c2.885-2.799,1.767-7.041-2.068-7.586c-5.638-0.8-11.591,2.798-13.964,5.172
		C27.709,27.645,29.485,29.75,32.809,30.15z"/>
	<path fill-rule="evenodd" clip-rule="evenodd" fill="#FFFFFF" d="M16.259,19.808c2.438-0.266,4.823,0.958,6.551,2.241
		c0.629,0.467,1.893,1.499,1.896,2.068c0.005,0.964-2.616,3.364-3.793,4.137C18.29,29.98,10.255,33.33,7.812,28.772
		C4.893,23.324,11.253,20.353,16.259,19.808z"/>
	<path fill-rule="evenodd" clip-rule="evenodd" fill="#FFFFFF" d="M26.602,25.497c2.373-2.374,8.326-5.972,13.964-5.172
		c3.835,0.546,4.953,4.788,2.068,7.586c-1.876,1.816-6.283,2.668-9.825,2.239C29.485,29.75,27.709,27.645,26.602,25.497z"/>
</g>

</svg>
