<?xml version="1.0" encoding="utf-8"?>
<!-- Generator: Adobe Illustrator 15.0.0, SVG Export Plug-In . SVG Version: 6.00 Build 0)  -->
<!DOCTYPE svg PUBLIC "-//W3C//DTD SVG 1.1//EN" "http://www.w3.org/Graphics/SVG/1.1/DTD/svg11.dtd">
<svg version="1.1" id="Ebene_2" xmlns="http://www.w3.org/2000/svg" xmlns:xlink="http://www.w3.org/1999/xlink" x="0px" y="0px"
	 width="51.023px" height="51.023px" viewBox="0 0 51.023 51.023" enable-background="new 0 0 51.023 51.023" xml:space="preserve">
<g id="path8">
	<path d="M22.932,33.408l-0.11-1.431c-0.33-2.97,0.66-6.214,3.41-9.514c2.475-2.915,3.85-5.059,3.85-7.534
		c0-2.805-1.761-4.674-5.225-4.729c-1.979,0-4.18,0.66-5.554,1.705l-1.32-3.464c1.814-1.32,4.949-2.2,7.864-2.2
		c6.325,0,9.184,3.904,9.184,8.084c0,3.739-2.09,6.434-4.729,9.568c-2.42,2.86-3.3,5.279-3.135,8.084l0.055,1.431H22.932z
		 M21.722,41.107c0-2.034,1.375-3.464,3.3-3.464s3.244,1.43,3.244,3.464c0,1.925-1.265,3.409-3.299,3.409
		C23.042,44.516,21.722,43.031,21.722,41.107z"/>
</g>
</svg>
