<?xml version="1.0" encoding="utf-8"?>
<!-- Generator: Adobe Illustrator 15.0.0, SVG Export Plug-In . SVG Version: 6.00 Build 0)  -->
<!DOCTYPE svg PUBLIC "-//W3C//DTD SVG 1.1//EN" "http://www.w3.org/Graphics/SVG/1.1/DTD/svg11.dtd">
<svg version="1.1" id="Ebene_1" xmlns="http://www.w3.org/2000/svg" xmlns:xlink="http://www.w3.org/1999/xlink" x="0px" y="0px"
	 width="51.024px" height="51.024px" viewBox="0 0 51.024 51.024" enable-background="new 0 0 51.024 51.024" xml:space="preserve">
<g id="path4">
  <rect x="0" y="0" fill="#FFFFFF" width="51.023" height="51.023"/>
	<path fill-rule="evenodd" clip-rule="evenodd" fill="#FFFFFF" d="M0.205,0C1.292,0,2.381,0,3.47,0c1.088,0,2.177,0,3.266,0
		C7.824,0,8.912,0,10,0c0.544,0,1.088,0,1.633,0c0.477,0,0.953,0,1.429,0c2.109,0,4.218,0,6.327,0c1.088,0,2.177,0,3.265,0
		c1.021,0,2.042,0,3.062,0c2.108,0,4.217,0,6.326,0s4.219,0,6.328,0c2.108,0,4.217,0,6.326,0s4.219,0,6.327,0
		c0,1.088,0,2.177,0,3.266s0,2.177,0,3.266c0,1.088,0,2.177,0,3.265c0,0.544,0,1.089,0,1.633c0,0.477,0,0.952,0,1.429
		c0,2.109,0,4.218,0,6.327c0,2.109,0,4.219,0,6.328c0,2.177,0,4.353,0,6.531c0,1.089,0,2.177,0,3.266c0,1.021,0,2.04,0,3.061
		c0,2.109,0,4.219,0,6.327s0,4.218,0,6.327c-1.089,0-2.177,0-3.266,0c-1.02,0-2.041,0-3.062,0c-2.109,0-4.218,0-6.326,0
		c-1.089,0-2.178,0-3.267,0c-1.02,0-2.04,0-3.062,0c-2.109,0-4.218,0-6.326,0c-2.109,0-4.218,0-6.327,0c-2.109,0-4.218,0-6.327,0
		c-1.088,0-2.177,0-3.266,0c-0.544,0-1.088,0-1.633,0c-0.476,0-0.952,0-1.428,0c-1.021,0-2.041,0-3.062,0c-0.543,0-1.088,0-1.632,0
		c-0.272,0-0.544,0-0.816,0c-0.204,0-0.408,0-0.613,0c-0.135,0-0.272,0-0.407,0c-0.068,0-0.136,0-0.205,0c0-1.089,0-2.177,0-3.266
		c0-1.021,0-2.041,0-3.062c0-2.108,0-4.218,0-6.327c0-4.218,0-8.436,0-12.654c0-2.109,0-4.218,0-6.327c0-2.109,0-4.218,0-6.327
		c0-1.088,0-2.177,0-3.266c0-0.544,0-1.088,0-1.633c0-0.476,0-0.952,0-1.428c0-1.021,0-2.041,0-3.062C0,3.13,0,2.585,0,2.041
		c0-0.272,0-0.544,0-0.816c0-0.204,0-0.408,0-0.613C0,0.477,0,0.34,0,0.204C0,0.136,0,0.068,0,0C0.068,0,0.136,0,0.205,0z
		 M47.554,25.104c-1.837,0-3.673,0-5.51,0c-1.905,0-3.811,0-5.716,0c-1.836,0-3.673,0-5.51,0c-1.905,0-3.811,0-5.715,0
		c-0.204,0-0.408,0-0.613,0c-0.203,0-0.408,0-0.612,0s-0.408,0-0.612,0c-0.272,0-0.544,0-0.816,0c-0.953,0-1.905,0-2.858,0
		c-1.905,0-3.81,0-5.715,0c-0.204,0-0.408,0-0.612,0c-0.205,0-0.409,0-0.613,0c-0.204,0-0.408,0-0.612,0c-0.272,0-0.544,0-0.816,0
		c-0.953,0-1.905,0-2.857,0c-0.476,0-0.952,0-1.428,0c-0.477,0-0.953,0-1.429,0c-0.205,0-0.409,0-0.612,0c-0.272,0-0.544,0-0.816,0
		c-0.204,0-0.409,0-0.612,0c-0.136,0-0.272,0-0.408,0c-0.204,0-0.408,0-0.612,0c0,0.136,0,0.271,0,0.409c0,0.135,0,0.271,0,0.408
		c0.027,0.046-0.034,0.164,0,0.203c0.013,0.017,0.18,0,0.204,0c0.068,0,0.136,0,0.204,0c0.408,0,0.816,0,1.225,0
		c0.476,0,0.952,0,1.429,0c0.884,0,1.769,0,2.653,0c0.204,0,0.409,0,0.613,0c0.204,0,0.408,0,0.612,0c0.476,0,0.952,0,1.428,0
		c0.205,0,0.408,0,0.612,0s0.408,0,0.612,0c0.477,0,0.953,0,1.429,0c0.408,0,0.816,0,1.224,0c0.477,0,0.953,0,1.429,0
		c0.885,0,1.769,0,2.653,0c0.884,0,1.769,0,2.653,0c0.476,0,0.952,0,1.429,0c0.476,0,0.952,0,1.429,0c0.203,0,0.408,0,0.612,0
		s0.409,0,0.612,0c0.476,0,0.953,0,1.429,0c0.884,0,1.769,0,2.652,0c0.409,0,0.816,0,1.226,0c0.476,0,0.951,0,1.429,0
		c0.476,0,0.952,0,1.429,0c0.476,0,0.951,0,1.428,0c0.885,0,1.77,0,2.654,0c0.407,0,0.815,0,1.224,0c0.477,0,0.953,0,1.429,0
		c0.205,0,0.408,0,0.612,0s0.408,0,0.612,0c0.477,0,0.952,0,1.429,0s0.952,0,1.429,0s0.952,0,1.429,0c0,0.205,0,0.409,0,0.613
		c0,0.136,0,0.272,0,0.407c0,0.205,0,0.408,0,0.613c0,0.408,0,0.816,0,1.224c0,0.817,0,1.634,0,2.45c0,1.633,0,3.266,0,4.898
		c0.027,0.04-0.033,0.17,0,0.203c0.025,0.025,0.168-0.009,0.204,0c0.058,0.016,0.144,0,0.204,0c0.067,0,0.138-0.006,0.204,0
		s0.137,0,0.205,0c0.203,0,0.407,0,0.611,0c0.068,0,0.137,0,0.204,0c0.068,0,0.138,0.004,0.204,0c0.067-0.003,0.137,0,0.204,0
		s0.137,0,0.204,0c0-0.953,0-1.904,0-2.857c0-0.476,0-0.952,0-1.429c0-0.476,0-0.952,0-1.429c0-0.476,0-0.952,0-1.429
		c0-0.203,0-0.408,0-0.611c0-0.272,0-0.545,0-0.816c0-0.952,0-1.905,0-2.857C47.962,25.104,47.758,25.104,47.554,25.104z"/>
	<path fill-rule="evenodd" clip-rule="evenodd" d="M48.167,25.104c0,0.952,0,1.905,0,2.857c0,0.271,0,0.544,0,0.816
		c0,0.203,0,0.408,0,0.611c0,0.477,0,0.953,0,1.429c0,0.477,0,0.953,0,1.429c0,0.477,0,0.953,0,1.429c0,0.953,0,1.904,0,2.857
		c-0.067,0-0.137,0-0.204,0s-0.137-0.003-0.204,0c-0.066,0.004-0.136,0-0.204,0c-0.067,0-0.136,0-0.204,0c-0.204,0-0.408,0-0.611,0
		c-0.068,0-0.139,0.006-0.205,0s-0.137,0-0.204,0c-0.061,0-0.146,0.016-0.204,0c-0.036-0.009-0.179,0.025-0.204,0
		c-0.033-0.033,0.027-0.163,0-0.203c0-1.633,0-3.266,0-4.898c0-0.816,0-1.633,0-2.45c0-0.407,0-0.815,0-1.224
		c0-0.205,0-0.408,0-0.613c0-0.135,0-0.271,0-0.407c0-0.204,0-0.408,0-0.613c-0.477,0-0.952,0-1.429,0s-0.952,0-1.429,0
		s-0.952,0-1.429,0c-0.204,0-0.408,0-0.612,0s-0.407,0-0.612,0c-0.476,0-0.952,0-1.429,0c-0.408,0-0.816,0-1.224,0
		c-0.885,0-1.77,0-2.654,0c-0.477,0-0.952,0-1.428,0c-0.477,0-0.953,0-1.429,0c-0.478,0-0.953,0-1.429,0c-0.409,0-0.816,0-1.226,0
		c-0.884,0-1.769,0-2.652,0c-0.477,0-0.953,0-1.429,0c-0.203,0-0.408,0-0.612,0s-0.409,0-0.612,0c-0.477,0-0.953,0-1.429,0
		c-0.477,0-0.953,0-1.429,0c-0.884,0-1.769,0-2.653,0c-0.885,0-1.769,0-2.653,0c-0.476,0-0.952,0-1.429,0c-0.408,0-0.816,0-1.224,0
		c-0.477,0-0.953,0-1.429,0c-0.204,0-0.408,0-0.612,0s-0.408,0-0.612,0c-0.476,0-0.952,0-1.428,0c-0.205,0-0.409,0-0.612,0
		c-0.204,0-0.409,0-0.613,0c-0.884,0-1.769,0-2.653,0c-0.477,0-0.953,0-1.429,0c-0.409,0-0.816,0-1.225,0c-0.068,0-0.136,0-0.204,0
		c-0.024,0-0.191,0.017-0.204,0c-0.034-0.04,0.027-0.157,0-0.203c0-0.136,0-0.272,0-0.408c0-0.137,0-0.272,0-0.409
		c0.204,0,0.408,0,0.612,0c0.136,0,0.272,0,0.408,0c0.204,0,0.408,0,0.612,0c0.272,0,0.544,0,0.816,0c0.204,0,0.408,0,0.612,0
		c0.476,0,0.952,0,1.429,0c0.476,0,0.952,0,1.428,0c0.953,0,1.905,0,2.857,0c0.272,0,0.544,0,0.816,0c0.204,0,0.409,0,0.612,0
		c0.204,0,0.408,0,0.613,0c0.204,0,0.408,0,0.612,0c1.905,0,3.81,0,5.715,0c0.953,0,1.905,0,2.858,0c0.271,0,0.543,0,0.816,0
		c0.204,0,0.408,0,0.612,0s0.409,0,0.612,0c0.205,0,0.409,0,0.613,0c1.904,0,3.81,0,5.715,0c1.837,0,3.674,0,5.51,0
		c1.905,0,3.811,0,5.716,0c1.837,0,3.673,0,5.51,0C47.758,25.104,47.962,25.104,48.167,25.104z"/>
</g>
</svg>
