<?xml version="1.0" encoding="utf-8"?>
<!-- Generator: Adobe Illustrator 15.0.0, SVG Export Plug-In . SVG Version: 6.00 Build 0)  -->
<!DOCTYPE svg PUBLIC "-//W3C//DTD SVG 1.1//EN" "http://www.w3.org/Graphics/SVG/1.1/DTD/svg11.dtd">
<svg version="1.1" id="Ebene_1" xmlns="http://www.w3.org/2000/svg" xmlns:xlink="http://www.w3.org/1999/xlink" x="0px" y="0px"
	 width="51.024px" height="51.024px" viewBox="0 0 51.024 51.024" enable-background="new 0 0 51.024 51.024" xml:space="preserve">
<g id="path6">
  <rect x="0" y="0" fill="#FFFFFF" width="51.023" height="51.023"/>
	<path fill-rule="evenodd" clip-rule="evenodd" fill="#FFFFFF" d="M0.212,0c16.937,0,33.875,0,50.812,0c0,17.005,0,34.011,0,51.015
		c-17.005,0-34.01,0-51.015,0c0-16.8,0-33.601,0-50.402C-0.009,0.322-0.025,0.034,0.212,0z M4.09,22.242
		c-0.922,0.985-2.161,2.964-2.245,3.877c-0.362,3.916,3.454,7.497,6.734,7.958c7.386,1.041,12.724-4.109,16.529-6.734
		c1.408,2.262,3.631,4.828,6.938,5.918c9.15,3.018,21.349-4.536,15.509-13.672c-7.4-3.89-16.29,1.473-21.835,4.489
		C23.225,16.202,9.404,16.561,4.09,22.242z"/>
	<path fill-rule="evenodd" clip-rule="evenodd" d="M25.72,24.079c5.545-3.016,14.435-8.379,21.835-4.489
		c5.84,9.136-6.358,16.689-15.509,13.672c-3.307-1.09-5.53-3.656-6.938-5.918c-3.805,2.625-9.143,7.775-16.529,6.734
		c-3.28-0.462-7.096-4.043-6.734-7.958c0.084-0.913,1.323-2.892,2.245-3.877C9.404,16.561,23.225,16.202,25.72,24.079z
		 M4.498,29.997c2.891,5.396,12.403,1.43,15.508-0.612c1.393-0.916,4.496-3.756,4.49-4.897c-0.003-0.675-1.499-1.895-2.245-2.448
		c-2.046-1.52-4.868-2.968-7.755-2.653C8.571,20.031,1.042,23.549,4.498,29.997z M34.087,31.628
		c4.193,0.507,9.411-0.499,11.631-2.652c3.415-3.312,2.093-8.333-2.448-8.979c-6.672-0.947-13.72,3.312-16.529,6.122
		C28.051,28.663,30.153,31.155,34.087,31.628z"/>
	<path fill-rule="evenodd" clip-rule="evenodd" fill="#FFFFFF" d="M14.497,19.386c2.887-0.315,5.708,1.133,7.755,2.653
		c0.746,0.553,2.241,1.773,2.245,2.448c0.006,1.141-3.097,3.981-4.49,4.897c-3.105,2.042-12.617,6.008-15.508,0.612
		C1.042,23.549,8.571,20.031,14.497,19.386z"/>
	<path fill-rule="evenodd" clip-rule="evenodd" fill="#FFFFFF" d="M26.741,26.119c2.81-2.81,9.857-7.069,16.529-6.122
		c4.541,0.645,5.863,5.667,2.448,8.979c-2.22,2.153-7.438,3.159-11.631,2.652C30.153,31.155,28.051,28.663,26.741,26.119z"/>
</g>
</svg>
