<?xml version="1.0" encoding="utf-8"?>
<!-- Generator: Adobe Illustrator 15.0.0, SVG Export Plug-In . SVG Version: 6.00 Build 0)  -->
<!DOCTYPE svg PUBLIC "-//W3C//DTD SVG 1.1//EN" "http://www.w3.org/Graphics/SVG/1.1/DTD/svg11.dtd">
<svg version="1.1" id="Ebene_1" xmlns="http://www.w3.org/2000/svg" xmlns:xlink="http://www.w3.org/1999/xlink" x="0px" y="0px"
	 width="51.024px" height="51.024px" viewBox="0 0 51.024 51.024" enable-background="new 0 0 51.024 51.024" xml:space="preserve">
  
<g id="path3">
  <rect x="0" y="0" fill="#FFFFFF" width="51.023" height="51.023"/>
	<path fill-rule="evenodd" clip-rule="evenodd" fill="#FFFFFF" d="M0.21,0.002c16.938,0,33.877,0,50.815,0
		c0,17.007,0,34.013,0,51.02c-17.007,0-34.012,0-51.019,0c0-16.803,0-33.605,0-50.408C-0.011,0.324-0.027,0.036,0.21,0.002z
		 M8.986,43.879c1.156,0,2.313,0,3.469,0c1.649-3.657,2.971-7.642,4.694-11.225c5.511,0,11.021,0,16.53,0
		c1.304,3.866,2.963,7.378,4.285,11.225c1.16-0.134,2.854,0.268,3.674-0.205c-5.72-12.443-10.718-25.607-16.53-37.959
		C19.93,18.633,14.329,31.125,8.986,43.879z"/>
	<path fill-rule="evenodd" clip-rule="evenodd" d="M25.108,5.715c5.813,12.352,10.811,25.516,16.53,37.959
		c-0.82,0.473-2.514,0.071-3.674,0.205c-1.322-3.847-2.981-7.358-4.285-11.225c-5.51,0-11.02,0-16.53,0
		c-1.723,3.583-3.044,7.567-4.694,11.225c-1.156,0-2.313,0-3.469,0C14.329,31.125,19.93,18.633,25.108,5.715z M17.761,30.613
		c5.035,0,10.069,0,15.102,0c-2.552-6.156-4.923-12.491-7.755-18.366C22.863,18.572,20.094,24.375,17.761,30.613z"/>
	<path fill-rule="evenodd" clip-rule="evenodd" fill="#FFFFFF" d="M25.108,12.247c2.832,5.875,5.203,12.21,7.755,18.366
		c-5.033,0-10.067,0-15.102,0C20.094,24.375,22.863,18.572,25.108,12.247z"/>
</g>
</svg>
